<?xml version="1.0" encoding="UTF-8"?>
<svg width="1200" height="120" viewBox="0 0 1200 120" xmlns="http://www.w3.org/2000/svg">
  <defs>
    <linearGradient id="g" x1="0" x2="1">
      <stop offset="0%" stop-color="#9F00FF"/>
      <stop offset="25%" stop-color="#00D8FF"/>
      <stop offset="50%" stop-color="#FFEA00"/>
      <stop offset="75%" stop-color="#FF007F"/>
      <stop offset="100%" stop-color="#00E5FF"/>
    </linearGradient>
    <linearGradient id="bg" x1="0" y1="0" x2="1" y2="1">
      <stop offset="0%" stop-color="#060A10"/>
      <stop offset="100%" stop-color="#0C1221"/>
    </linearGradient>
    <filter id="glow" x="-50%" y="-50%" width="200%" height="200%">
      <feGaussianBlur stdDeviation="3" result="blur" />
      <feMerge>
        <feMergeNode in="blur"/>
        <feMergeNode in="SourceGraphic"/>
      </feMerge>
    </filter>
  </defs>
  <rect x="0" y="0" width="1200" height="120" fill="url(#bg)" />
  <g opacity="0.15">
    <path d="M0 110 H1200" stroke="#00E5FF" stroke-width="1.7" stroke-dasharray="8,6" />
    <path d="M0 102 H1200" stroke="#FF00E5" stroke-width="1.2" stroke-dasharray="3,4" />
    <path d="M0 94 H1200" stroke="#FFD700" stroke-width="0.8" />
  </g>
  <g>
    <line x1="60" y1="15" x2="180" y2="15" stroke="#00E5FF" stroke-width="3" />
    <line x1="1020" y1="15" x2="1140" y2="15" stroke="#FF007F" stroke-width="3" />
  </g>
  <polygon points="15,24 35,15 35,23" fill="#66FCF1" >
    <animate attributeName="opacity" values="0.2;1;0.2" dur="1.4s" repeatCount="indefinite" />
  </polygon>
  <polygon points="1165,24 1185,15 1185,23" fill="#FF00FF" >
    <animate attributeName="opacity" values="0.2;1;0.2" dur="1.6s" repeatCount="indefinite" />
  </polygon>
  <text x="600" y="72" text-anchor="middle" fill="#00E5FF" font-family="'Segoe UI',sans-serif" font-size="56" font-weight="900" filter="url(#glow)">Lucenfort</text>
  <g>
    <rect x="430" y="82" width="340" height="4" fill="#00A4C8" opacity="0.35" />
    <rect x="440" y="80" width="320" height="1" fill="#00E5FF" opacity="0.65" />
  </g>
  <g>
    <rect x="60" y="30" width="165" height="2" fill="#00E5FF" opacity="0.8" />
    <rect x="1000" y="30" width="165" height="2" fill="#00E5FF" opacity="0.8" />
    <circle cx="60" cy="30" r="4" fill="#00E5FF" opacity="0.8">
      <animate attributeName="r" values="3;5;3" dur="1.2s" repeatCount="indefinite" />
    </circle>
    <circle cx="1165" cy="30" r="4" fill="#00E5FF" opacity="0.8">
      <animate attributeName="r" values="3;5;3" dur="1.2s" repeatCount="indefinite" />
    </circle>
  </g>
</svg>